HIERARCHY
ROOT RootJoint
{
    OFFSET   0.000000   0.000000   0.000000
    CHANNELS 6 Xposition Yposition Zposition Xrotation Yrotation Zrotation
    JOINT pelvis_lowerback
    {
        OFFSET   0.000000   0.093605   0.000000
        CHANNELS 3 Xrotation Yrotation Zrotation
        JOINT lowerback_torso
        {
            OFFSET   0.000000   0.100000   0.000000
            CHANNELS 3 Xrotation Yrotation Zrotation
            JOINT torso_head
            {
                OFFSET   0.000000   0.282350   0.000000
                CHANNELS 3 Xrotation Yrotation Zrotation
                End Site
                {
                    OFFSET   0.000000   0.192650   0.000000
                }
            }
            JOINT rTorso_Clavicle
            {
                OFFSET  -0.001000   0.157500   0.000000
                CHANNELS 3 Xrotation Yrotation Zrotation
                JOINT rShoulder
                {
                    OFFSET  -0.117647   0.000000   0.000000
                    CHANNELS 3 Xrotation Yrotation Zrotation
                    JOINT rElbow
                    {
                        OFFSET  -0.245000   0.000000   0.000000
                        CHANNELS 3 Xrotation Yrotation Zrotation
                        JOINT rWrist
                        {
                            OFFSET  -0.240000   0.000000   0.000000
                            CHANNELS 3 Xrotation Yrotation Zrotation
                            End Site
                            {
                                OFFSET  -0.116353  -0.002500   0.000000
                            }
                        }
                    }
                }
            }
            JOINT lTorso_Clavicle
            {
                OFFSET   0.001000   0.157500   0.000000
                CHANNELS 3 Xrotation Yrotation Zrotation
                JOINT lShoulder
                {
                    OFFSET   0.117647   0.000000   0.000000
                    CHANNELS 3 Xrotation Yrotation Zrotation
                    JOINT lElbow
                    {
                        OFFSET   0.245000   0.000000   0.000000
                        CHANNELS 3 Xrotation Yrotation Zrotation
                        JOINT lWrist
                        {
                            OFFSET   0.240000   0.000000   0.000000
                            CHANNELS 3 Xrotation Yrotation Zrotation
                            End Site
                            {
                                OFFSET   0.116353  -0.002500   0.000000
                            }
                        }
                    }
                }
            }
        }
    }
    JOINT rHip
    {
        OFFSET  -0.100000  -0.051395   0.000000
        CHANNELS 3 Xrotation Yrotation Zrotation
        JOINT rKnee
        {
            OFFSET   0.000000  -0.410000   0.000000
            CHANNELS 3 Xrotation Yrotation Zrotation
            JOINT rAnkle
            {
                OFFSET   0.000000  -0.390000   0.000000
                CHANNELS 3 Xrotation Yrotation Zrotation
                JOINT rToeJoint
                {
                    OFFSET   0.000000  -0.050000   0.130000
                    CHANNELS 3 Xrotation Yrotation Zrotation
                    End Site
                    {
                        OFFSET  -0.010000   0.002000   0.060000
                    }
                }
            }
        }
    }
    JOINT lHip
    {
        OFFSET   0.100000  -0.051395   0.000000
        CHANNELS 3 Xrotation Yrotation Zrotation
        JOINT lKnee
        {
            OFFSET   0.000000  -0.410000   0.000000
            CHANNELS 3 Xrotation Yrotation Zrotation
            JOINT lAnkle
            {
                OFFSET   0.000000  -0.390000   0.000000
                CHANNELS 3 Xrotation Yrotation Zrotation
                JOINT lToeJoint
                {
                    OFFSET   0.000000  -0.050000   0.130000
                    CHANNELS 3 Xrotation Yrotation Zrotation
                    End Site
                    {
                        OFFSET   0.010000   0.002000   0.060000
                    }
                }
            }
        }
    }
}
MOTION
Frames: 10
Frame Time:   0.008333
 -2.360006   0.905996   3.946915  12.763446 -12.758439   7.275313  10.915014  -1.023154  -0.550990   3.969477   1.088070   1.203752  -1.016808   0.162099  -0.746824   5.321153 -16.026724   2.502355  34.095843   4.258023  41.127567 -179.992836  79.134159 179.993070  -6.601206   9.008067   7.834949   7.008762  12.757419   0.505780  43.743550 -10.819796 -37.874282 179.999834 -79.468810 179.999923  -4.018676  -9.478679  -9.580241 -23.247128  -4.487095 -16.095122  18.510210   0.000069   0.000043  -6.415794  -6.074223   6.166901  -0.857498  -0.000639  -0.002268 -16.949520   6.812298   0.053600  18.032365  -0.000539  -0.000293  -9.828265   8.805732  -0.287554  -4.308461  -0.000208   0.001525
 -2.360383   0.905870   3.946449  12.796434 -12.787182   7.312232  10.998385  -0.949384  -0.621469   3.905771   1.118616   1.184655  -1.040387   0.117372  -0.702379   5.347361 -15.999865   2.462759  34.074992   4.285617  41.227007 -179.993897  79.232009 179.994124  -6.565001   8.969743   7.766937   7.015334  12.746415   0.604456  43.668178 -10.805199 -37.830602 -179.999855 -79.349931 -179.999739  -3.981748  -9.482125  -9.638485 -23.086652  -4.492735 -16.046582  18.122202   0.000202  -0.000039  -6.564964  -6.198831   6.156479  -0.395210  -0.000815  -0.002100 -17.067666   6.733252   0.095727  18.158334  -0.000525  -0.000340  -9.828488   8.730513  -0.328171  -4.346198  -0.000162   0.001281
 -2.360737   0.905737   3.945990  12.854683 -12.828035   7.343799  11.052547  -0.878967  -0.719200   3.824859   1.146561   1.159376  -1.068626   0.075844  -0.659915   5.383210 -15.986923   2.425139  34.065479   4.309231  41.327473 -179.994979  79.317299 179.995201  -6.533757   8.948384   7.731027   7.018079  12.746297   0.722091  43.595886 -10.779153 -37.783215 -179.999605 -79.230333 -179.999463  -3.945593  -9.487350  -9.652827 -22.926303  -4.500108 -15.982131  17.680485   0.000330  -0.000091  -6.696392  -6.312684   6.145202   0.028588  -0.000933  -0.001916 -17.189709   6.657019   0.148281  18.247917  -0.000487  -0.000354  -9.840037   8.662330  -0.367118  -4.363700  -0.000128   0.001054
 -2.360944   0.905967   3.945558  12.891836 -12.854391   7.289145  11.132506  -0.819675  -0.754326   3.749428   1.169145   1.150932  -1.097741   0.036838  -0.621797   5.410947 -15.968346   2.394167  34.051884   4.329649  41.416777 -179.995883  79.404076 179.996102  -6.500368   8.904516   7.672026   7.011935  12.735078   0.808572  43.518665 -10.766123 -37.745303 -179.999578 -79.120658 -179.999433  -3.910348  -9.493252  -9.647162 -22.838494  -4.461329 -15.861244  17.418020   0.000311  -0.000242  -6.526966  -6.382612   6.151238   0.407426  -0.000869  -0.001524 -17.301261   6.569547   0.265223  18.316935  -0.000431  -0.000331  -9.811072   8.596450  -0.394947  -4.180537  -0.000126   0.000590
 -2.361114   0.906222   3.945270  12.908139 -12.827287   7.238211  11.187939  -0.790147  -0.826267   3.684099   1.168921   1.141060  -1.121488  -0.000317  -0.583280   5.448491 -15.966357   2.367738  34.048893   4.346473  41.508365 -179.996746  79.481207 179.996971  -6.470145   8.870652   7.641727   7.007519  12.724700   0.911292  43.449343 -10.747477 -37.701003 -179.999559 -79.015259 -179.999425  -3.876766  -9.498905  -9.640944 -22.719660  -4.457637 -15.771131  17.156648   0.000278  -0.000399  -6.380160  -6.470234   6.133154   0.366194  -0.000693  -0.001220 -17.394435   6.500011   0.388755  18.383219  -0.000389  -0.000268  -9.773068   8.560443  -0.407288  -3.788290  -0.000312   0.000272
 -2.361195   0.906466   3.945105  12.919915 -12.791766   7.195117  11.222558  -0.765686  -0.921223   3.616718   1.161837   1.115663  -1.144757  -0.034890  -0.550135   5.489858 -15.973802   2.340354  34.051668   4.357776  41.595415 -179.997554  79.552081 179.997794  -6.442086   8.843416   7.623248   7.004988  12.717832   1.017125  43.386905 -10.724704 -37.655607 -179.999542 -78.916952 -179.999433  -3.844434  -9.504497  -9.631162 -22.593343  -4.459505 -15.701403  16.899150   0.000233  -0.000515  -6.244881  -6.557038   6.108950   0.336501  -0.000556  -0.000976 -17.471118   6.424058   0.497766  18.454868  -0.000359  -0.000218  -9.746713   8.505626  -0.427538  -3.504455  -0.000379   0.000029
 -2.361180   0.906681   3.945038  12.929603 -12.752575   7.151971  11.241347  -0.744681  -1.028597   3.546058   1.151908   1.078098  -1.168262  -0.067114  -0.521482   5.531368 -15.986023   2.310355  34.056914   4.364648  41.676020 -179.998287  79.617681 179.998547  -6.415602   8.820276   7.605575   7.003550  12.713406   1.120192  43.329793 -10.700789 -37.611713 -179.999537 -78.825425 -179.999465  -3.813425  -9.509979  -9.618572 -22.464776  -4.465794 -15.642315  16.649266   0.000180  -0.000596  -6.119875  -6.641655   6.082767   0.315651  -0.000448  -0.000781 -17.537211   6.351862   0.601955  18.524275  -0.000330  -0.000174  -9.724092   8.453670  -0.446753  -3.267937  -0.000411  -0.000113
 -2.361257   0.906907   3.945167  12.986593 -12.749725   7.039425  11.147259  -0.715774  -1.114500   3.498324   1.173833   1.047357  -1.187559  -0.097990  -0.435927   5.564030 -16.016840   2.249999  34.118030   4.403496  41.815054 -179.999070  79.699279 179.999338  -6.421812   8.795619   7.578237   6.990965  12.757540   1.231882  43.230053 -10.647575 -37.596275 -179.999187 -78.745465 -179.999177  -3.796502  -9.510263  -9.681238 -22.287411  -4.499922 -15.484979  16.237526   0.000154  -0.000737  -5.910347  -6.711988   6.124190   0.283335  -0.000344  -0.000626 -17.546962   6.260819   0.806595  18.361296  -0.000116  -0.000102  -9.728267   8.417984  -0.403445  -2.977749  -0.000631  -0.000308
 -2.361301   0.907103   3.945371  13.058847 -12.756008   6.917623  11.029652  -0.692975  -1.220583   3.433157   1.192953   1.012769  -1.209975  -0.126720  -0.353159   5.604516 -16.057916   2.196068  34.183838   4.438057  41.952948 -179.999832  79.772877 -179.999898  -6.430260   8.774863   7.573372   6.978646  12.810916   1.348028  43.137086 -10.588042 -37.581139 -179.998951 -78.670523 -179.998993  -3.780951  -9.511801  -9.706866 -22.114748  -4.538204 -15.314935  15.810294   0.000131  -0.000827  -5.696396  -6.773955   6.163147   0.256219  -0.000265  -0.000501 -17.546864   6.167123   1.022549  18.180441   0.000073  -0.000024  -9.740194   8.381039  -0.364189  -2.770342  -0.000714  -0.000420
 -2.361268   0.907258   3.945628  13.134461 -12.766125   6.794710  10.903440  -0.677342  -1.342560   3.359643   1.204708   0.967653  -1.234097  -0.153674  -0.277898   5.646151 -16.103060   2.145542  34.248585   4.467965  42.083984 179.999470  79.840559 -179.999197  -6.439190   8.759266   7.573900   6.966626  12.862936   1.462423  43.050408 -10.528751 -37.564946 -179.998852 -78.600786 -179.998936  -3.766072  -9.513921  -9.714785 -21.949782  -4.575535 -15.148531  15.393875   0.000095  -0.000871  -5.490511  -6.830672   6.197731   0.234713  -0.000205  -0.000401 -17.536000   6.074390   1.227097  18.012860   0.000196   0.000044  -9.761472   8.341034  -0.330069  -2.677208  -0.000653  -0.000420
